<svg xmlns="http://www.w3.org/2000/svg">
    <symbol id="phone" viewBox="0 0 24 24">
        <svg xmlns="http://www.w3.org/2000/svg" width="24" height="24" viewBox="0 0 24 24" fill="none">
            <path d="M14.0389 4.1427C14.0576 4.07273 14.0898 4.00712 14.1339 3.94962C14.1779 3.89212 14.2328 3.84387 14.2955 3.80762C14.3582 3.77137 14.4274 3.74783 14.4992 3.73835C14.571 3.72888 14.644 3.73364 14.7139 3.75238C16.0448 4.09956 17.2591 4.79528 18.2317 5.76789C19.2043 6.7405 19.9 7.95482 20.2472 9.28576C20.2659 9.35571 20.2707 9.42867 20.2612 9.50047C20.2517 9.57226 20.2282 9.64149 20.1919 9.70418C20.1557 9.76687 20.1074 9.8218 20.0499 9.86583C19.9924 9.90986 19.9268 9.94213 19.8569 9.96079C19.8104 9.97315 19.7626 9.97933 19.7145 9.97915C19.5931 9.97923 19.4751 9.9392 19.3787 9.8653C19.2824 9.7914 19.2132 9.68775 19.1818 9.57046C18.8838 8.42723 18.2863 7.38415 17.4509 6.54873C16.6155 5.71332 15.5724 5.11579 14.4292 4.81773C14.3593 4.79907 14.2937 4.76681 14.2362 4.72278C14.1787 4.67874 14.1304 4.62381 14.0942 4.56112C14.0579 4.49843 14.0344 4.4292 14.0249 4.35741C14.0154 4.28561 14.0202 4.21265 14.0389 4.1427ZM13.6945 7.75662C15.0308 8.11296 15.8867 8.96891 16.243 10.3052C16.2744 10.4225 16.3436 10.5261 16.4399 10.6C16.5363 10.6739 16.6543 10.714 16.7757 10.7139C16.8237 10.714 16.8716 10.7079 16.918 10.6955C16.988 10.6769 17.0536 10.6446 17.1111 10.6006C17.1686 10.5565 17.2169 10.5016 17.2531 10.4389C17.2894 10.3762 17.3129 10.307 17.3224 10.2352C17.3319 10.1634 17.3271 10.0904 17.3084 10.0205C16.8492 8.30215 15.6975 7.15047 13.9792 6.69127C13.9093 6.67258 13.8363 6.66784 13.7646 6.67734C13.6928 6.68684 13.6236 6.71038 13.5609 6.74663C13.4982 6.78287 13.4433 6.83111 13.3992 6.88858C13.3552 6.94605 13.3229 7.01164 13.3042 7.08159C13.2855 7.15154 13.2808 7.22449 13.2903 7.29627C13.2998 7.36805 13.3233 7.43726 13.3596 7.49994C13.3958 7.56262 13.4441 7.61755 13.5015 7.66159C13.559 7.70564 13.6246 7.73792 13.6945 7.75662ZM20.9901 16.6651C20.8328 17.8657 20.2436 18.9679 19.3328 19.7657C18.422 20.5634 17.2518 21.0022 16.041 21C8.85008 21 3.00001 15.1498 3.00001 7.95867C2.99769 6.74825 3.43607 5.57838 4.23327 4.66759C5.03047 3.75679 6.13197 3.16736 7.332 3.00939C7.60825 2.97582 7.88793 3.03278 8.12904 3.17172C8.37016 3.31067 8.55968 3.52409 8.66916 3.77993L10.6069 8.10561C10.6925 8.30144 10.7279 8.51551 10.7099 8.72846C10.692 8.9414 10.6212 9.14652 10.5041 9.32525C10.4923 9.34344 10.4794 9.36092 10.4655 9.3776L8.53049 11.6791C8.51874 11.703 8.51263 11.7292 8.51263 11.7558C8.51263 11.7824 8.51874 11.8086 8.53049 11.8325C9.23397 13.2725 10.7438 14.7714 12.204 15.474C12.2284 15.4851 12.255 15.4904 12.2818 15.4894C12.3086 15.4885 12.3348 15.4813 12.3583 15.4684L14.6258 13.5398C14.642 13.5257 14.6591 13.5128 14.6772 13.5012C14.8551 13.3826 15.0598 13.3102 15.2728 13.2907C15.4858 13.2711 15.7002 13.305 15.8968 13.3892L20.2352 15.3334C20.4877 15.4453 20.6974 15.6355 20.8333 15.8758C20.9693 16.1162 21.0243 16.3939 20.9901 16.6679V16.6651ZM19.8982 16.5292C19.9013 16.4908 19.8922 16.4524 19.8722 16.4194C19.8523 16.3865 19.8225 16.3606 19.7871 16.3455L15.4477 14.4013C15.424 14.3921 15.3986 14.3882 15.3732 14.3898C15.3479 14.3914 15.3232 14.3984 15.3008 14.4104L13.0342 16.3391C13.0177 16.3529 13.0002 16.3657 12.9828 16.3777C12.7979 16.501 12.5842 16.5742 12.3626 16.5903C12.141 16.6064 11.9189 16.5648 11.7182 16.4695C10.032 15.6549 8.3514 13.9898 7.5368 12.3192C7.44099 12.1197 7.39834 11.8987 7.41298 11.6778C7.42762 11.4569 7.49906 11.2435 7.62037 11.0583C7.6322 11.0399 7.6454 11.0224 7.65986 11.0059L9.59305 8.70165C9.6041 8.6776 9.60983 8.65144 9.60983 8.62497C9.60983 8.5985 9.6041 8.57234 9.59305 8.54828L7.65986 4.22168C7.6471 4.18694 7.62414 4.15686 7.59398 4.13539C7.56383 4.11392 7.52789 4.10206 7.49088 4.10137H7.46976C6.53572 4.22563 5.67883 4.68561 5.0591 5.39543C4.43938 6.10525 4.09919 7.01637 4.10206 7.95867C4.10206 14.5418 9.45805 19.8979 16.041 19.8979C16.9834 19.9008 17.8946 19.5604 18.6044 18.9405C19.3143 18.3206 19.7741 17.4634 19.8982 16.5292Z" fill="#3F3E3C"/>
        </svg>
    </symbol>
    <symbol id="chevron-down" viewBox="0 0 24 24">
        <svg xmlns="http://www.w3.org/2000/svg" width="24" height="24" fill="none">
            <path d="M6 9L12 15L18 9" stroke="#3F3E3C" stroke-width="1.5" stroke-linecap="round" stroke-linejoin="round"/>
        </svg>
    </symbol>
    <symbol id="menu" viewBox="0 0 24 24">
        <svg xmlns="http://www.w3.org/2000/svg" width="24" height="24" viewBox="0 0 24 24" fill="none">
            <path d="M3 12H21" stroke="#FAFAFA" stroke-width="1.5" stroke-linecap="round" stroke-linejoin="round"/>
            <path d="M3 6H21" stroke="#FAFAFA" stroke-width="1.5" stroke-linecap="round" stroke-linejoin="round"/>
            <path d="M3 18H21" stroke="#FAFAFA" stroke-width="1.5" stroke-linecap="round" stroke-linejoin="round"/>
        </svg>
    </symbol>
    <symbol id="ellipse" viewBox="0 0 14 14">
        <svg xmlns="http://www.w3.org/2000/svg" width="14" height="14" viewBox="0 0 14 14" fill="none">
            <circle cx="7" cy="7" r="7" fill="#F59524"/>
        </svg>
    </symbol>
    <symbol id="search" viewBox="0 0 36 36">
        <svg xmlns="http://www.w3.org/2000/svg" width="36" height="36" viewBox="0 0 36 36" fill="none">
            <path d="M16.5 28.5C23.1274 28.5 28.5 23.1274 28.5 16.5C28.5 9.87258 23.1274 4.5 16.5 4.5C9.87258 4.5 4.5 9.87258 4.5 16.5C4.5 23.1274 9.87258 28.5 16.5 28.5Z" stroke="#3F3E3C" stroke-width="1.5" stroke-linecap="round" stroke-linejoin="round"/>
            <path d="M31.5 31.5L24.975 24.975" stroke="#3F3E3C" stroke-width="1.5" stroke-linecap="round" stroke-linejoin="round"/>
        </svg>
    </symbol>
    <symbol id="heart" viewBox="0 0 36 36">
        <svg xmlns="http://www.w3.org/2000/svg" width="36" height="36" viewBox="0 0 36 36" fill="none">
            <path d="M31.26 6.91505C30.4939 6.14856 29.5842 5.54052 28.583 5.12568C27.5818 4.71084 26.5087 4.49731 25.425 4.49731C24.3413 4.49731 23.2682 4.71084 22.267 5.12568C21.2658 5.54052 20.3561 6.14856 19.59 6.91505L18 8.50505L16.41 6.91505C14.8625 5.36751 12.7635 4.49812 10.575 4.49812C8.38645 4.49812 6.28753 5.36751 4.74 6.91505C3.19246 8.46259 2.32306 10.5615 2.32306 12.7501C2.32306 14.9386 3.19246 17.0375 4.74 18.5851L6.32999 20.1751L18 31.8451L29.67 20.1751L31.26 18.5851C32.0265 17.8189 32.6345 16.9093 33.0494 15.9081C33.4642 14.9069 33.6777 13.8338 33.6777 12.7501C33.6777 11.6663 33.4642 10.5932 33.0494 9.59202C32.6345 8.59083 32.0265 7.68119 31.26 6.91505Z" stroke="#3F3E3C" stroke-width="1.5" stroke-linecap="round" stroke-linejoin="round"/>
        </svg>
    </symbol>
    <symbol id="group" viewBox="0 0 26 32">
        <svg xmlns="http://www.w3.org/2000/svg" width="26" height="32" viewBox="0 0 26 32" fill="none">
            <path d="M13 13C16.3137 13 19 10.3137 19 7C19 3.68629 16.3137 1 13 1C9.68629 1 7 3.68629 7 7C7 10.3137 9.68629 13 13 13Z" stroke="#3F3E3C" stroke-width="1.5"/>
            <path d="M24.997 25C25 24.754 25 24.5035 25 24.25C25 20.5225 19.627 17.5 13 17.5C6.373 17.5 1 20.5225 1 24.25C1 27.9775 1 31 13 31C16.3465 31 18.76 30.7645 20.5 30.3445" stroke="#3F3E3C" stroke-width="1.5" stroke-linecap="round"/>
        </svg>
    </symbol>
    <symbol id="cart" viewBox="0 0 30 31">
        <svg xmlns="http://www.w3.org/2000/svg" width="30" height="31" viewBox="0 0 30 31" fill="none">
            <path d="M1 1H3.75094C4.97985 1 5.59431 1 6.05692 1.33371C6.51953 1.66743 6.71375 2.2501 7.1022 3.41546L8.06274 6.29705" stroke="#3F3E3C" stroke-width="1.5" stroke-linecap="round"/>
            <path d="M25.7196 23.9539H9.03387C8.77784 23.9539 8.64895 23.9539 8.55007 23.9433C8.30491 23.916 8.0682 23.8375 7.8552 23.7131C7.6422 23.5887 7.45764 23.421 7.31341 23.2209C7.16918 23.0208 7.06848 22.7926 7.01781 22.5512C6.96714 22.3098 6.96762 22.0604 7.01922 21.8192C7.05998 21.6629 7.1077 21.5086 7.16224 21.3566C7.25406 21.0847 7.2982 20.9487 7.3494 20.8269C7.60075 20.2249 8.01395 19.7042 8.54316 19.3228C9.07238 18.9413 9.69693 18.7138 10.3475 18.6657C10.4782 18.6569 10.6212 18.6569 10.9073 18.6569H20.4225" stroke="#3F3E3C" stroke-width="1.5" stroke-linecap="round" stroke-linejoin="round"/>
            <path d="M19.8558 18.6568H14.4863C12.2262 18.6568 11.0962 18.6568 10.2134 18.0741C9.32875 17.4914 8.8838 16.4532 7.99389 14.3768L7.69549 13.6811C6.26529 10.3439 5.55195 8.6789 6.33591 7.48707C7.12341 6.297 8.93853 6.297 12.5652 6.297H21.8881C25.9491 6.297 27.9779 6.297 28.7442 7.61596C29.5088 8.93493 28.5023 10.6971 26.4877 14.2214L25.988 15.0989C24.9957 16.8346 24.4995 17.7033 23.6767 18.1801C22.8557 18.6568 21.8545 18.6568 19.8558 18.6568Z" stroke="#3F3E3C" stroke-width="1.5" stroke-linecap="round"/>
            <path d="M24.8367 30.1338C25.8119 30.1338 26.6024 29.3433 26.6024 28.3681C26.6024 27.3929 25.8119 26.6024 24.8367 26.6024C23.8616 26.6024 23.071 27.3929 23.071 28.3681C23.071 29.3433 23.8616 30.1338 24.8367 30.1338Z" fill="#3F3E3C"/>
            <path d="M10.7112 30.1338C11.6864 30.1338 12.4769 29.3433 12.4769 28.3681C12.4769 27.3929 11.6864 26.6024 10.7112 26.6024C9.73608 26.6024 8.94556 27.3929 8.94556 28.3681C8.94556 29.3433 9.73608 30.1338 10.7112 30.1338Z" fill="#3F3E3C"/>
        </svg>
    </symbol>
</svg>